<svg width="924" height="520" viewBox="0 0 924 520" fill="none" xmlns="http://www.w3.org/2000/svg">
<g id="Group 1">
<path id="Vector 3" d="M92.5345 245.653C57.0989 256.677 37.0432 265.148 1.03445 283.153C27.7285 299.314 45.3196 307.268 84.5345 318.153C97.2301 321.339 107.439 322.868 131.034 325.153C162.757 325.171 178.655 323.564 204.034 318.153C223.132 312.737 233.738 308.912 252.534 300.653C265.572 294.37 272.497 290.539 283.534 282.653C277.52 266.526 273.536 259.38 267.034 253.653C256.801 243.863 246.972 239.081 222.034 232.653C201.081 229.973 187.313 229.846 159.034 232.153C133.707 234.556 119.116 237.65 92.5345 245.653Z" fill="#656AEC" stroke="#656AEC"/>
<path id="Vector 4" d="M831.034 245.653C866.47 256.677 886.526 265.148 922.534 283.153C895.84 299.314 878.249 307.268 839.034 318.153C826.339 321.339 816.13 322.868 792.534 325.153C760.812 325.171 744.914 323.564 719.534 318.153C700.437 312.737 689.831 308.912 671.034 300.653C657.997 294.37 651.072 290.539 640.034 282.653C646.049 266.526 650.033 259.38 656.534 253.653C666.768 243.863 676.597 239.081 701.534 232.653C722.488 229.973 736.256 229.846 764.534 232.153C789.861 234.556 804.453 237.65 831.034 245.653Z" fill="#656AEC" stroke="#656AEC"/>
<path id="Vector 1" d="M226.034 47.6529C177.208 23.9275 147.309 13.4076 88.5345 0.652908C94.6558 29.2681 99.7805 48.2623 116.034 74.6529C137.986 107.947 154.187 124.419 189.534 150.153C207.913 162.848 219.719 169.407 243.534 180.153C259.689 186.637 267.118 189.182 276.534 191.153C285.578 193.486 291.366 194.423 302.534 195.653C323.812 196.018 335.136 195.093 353.034 189.153C353.97 189.881 352.693 184.736 347.034 165.153C341.72 150.532 337.731 142.968 329.534 130.153C299.618 92.274 276.863 74.2632 226.034 47.6529Z" fill="#656AEC" stroke="#656AEC"/>
<path id="Vector 5" d="M697.313 47.6529C746.14 23.9275 776.039 13.4076 834.813 0.652908C828.692 29.2681 823.567 48.2623 807.313 74.6529C785.362 107.947 769.161 124.419 733.813 150.153C715.435 162.848 703.629 169.407 679.813 180.153C663.659 186.637 656.23 189.182 646.813 191.153C637.769 193.486 631.982 194.423 620.813 195.653C599.536 196.018 588.212 195.093 570.313 189.153C569.377 189.881 570.655 184.736 576.313 165.153C581.628 150.532 585.617 142.968 593.813 130.153C623.729 92.274 646.485 74.2632 697.313 47.6529Z" fill="#656AEC" stroke="#656AEC"/>
<circle id="Ellipse 1" cx="461.034" cy="351.153" r="167.5" fill="#656AEC" stroke="#656AEC"/>
</g>
</svg>
